<svg width="815" height="685" viewBox="0 0 815 685" fill="none" xmlns="http://www.w3.org/2000/svg">
<path fill-rule="evenodd" clip-rule="evenodd" d="M0 0L83.5566 35.0636L75.4479 74.4758L35.0361 138.465L0 74.3616V169.035L37.1625 225.993L14.1806 265.369L11.0425 358.231L35.1892 289.308L39.7811 372.869L1.91836 384.8L41.09 394.102L0.187008 456.27L15.4386 500.673L32.0338 473.859L0 685L40.4416 659.277L38.3185 640.811L57.7881 679.737L128.983 668.98L95.0751 654.612L179.283 649.945L133.165 681.245L289.632 675.616L337.69 653.369L366.971 673.849L559.458 685.253L526.047 656.761L708.276 673.185L633.318 641.688L782.615 656.732L815 685L786.052 537.246L807.962 568.641L809.951 379.388L781.435 428.97L782.529 309.577L811.806 346.318L811.131 274.676L784.98 253.523L800.313 240.681L811.831 154.227L789.024 182.779L801.187 126.776L782.285 73.4937L815.081 82.6036L797.611 38.5102L748.326 35.8281L815 0L590.03 1.29587L650.556 30.2617L520.829 21.6591L438.395 10.6656L278.327 37.886L357.96 0L230.217 20.3143L148.393 48.0702L136.027 0H0Z" fill="#082E00"/>
<path fill-rule="evenodd" clip-rule="evenodd" d="M778.091 663.174L692.776 625.07L753.659 628.053L736.605 539.935L778.091 596.003V510.483L744.522 459.033L765.281 423.465L796.534 354.28L746.304 401.84L747.621 295.124L794.939 332.118L751.904 269.513L777.922 251.022L788.191 204.482L749.154 235.134L778.091 44.4085L741.56 67.644L743.478 84.3247L725.89 49.1628L644.091 51.5304L674.721 64.5084L523.237 55.8633L587.849 15.6472L457.442 48.2921L408.565 67.4694L363.534 26.0023L230.1 10.1891L302.909 69.9172L135.021 26.6026L145.895 55.9722L70.0554 65.3496L41.8953 44.4085L68.0441 177.875L27.4854 106.339L12.5727 218.498L42.7033 203.107L61.3896 330.248L33.85 338.399L23.5301 410.463L69.0126 387.313L43.1391 426.473L54.5951 466.902L47.8711 536.652L13.9315 533.958L71.4471 596.787L41.8218 588.558L57.6032 628.388L102.122 630.81L41.8953 663.174L245.112 662.003L190.438 635.838L307.622 643.609L382.085 653.54L526.676 628.951L454.743 663.174L570.134 644.824L644.047 619.752L655.217 663.174H778.091Z" fill="#00C824"/>
</svg>
